<!-- icon666.com - MILLIONS vector ICONS FREE --><svg id="Filled_Outline" viewBox="0 0 128 128" xmlns="http://www.w3.org/2000/svg" data-name="Filled Outline"><path d="m98.6 21.134h-24.118v-13.448a4.556 4.556 0 0 1 3.846-4.486 50.98 50.98 0 0 1 16.427 0 4.556 4.556 0 0 1 3.845 4.486z" fill="#f5f6ff"></path><path d="m57.76 27.958a3.313 3.313 0 0 0 -1.593-2.732.9.9 0 0 1 -.109-1.379c2.2-2.205.739-5.059-.068-6.276a.891.891 0 0 1 .081-1.092 4.7 4.7 0 0 0 1.291-3.6 2.634 2.634 0 0 0 -1.413-2.2.888.888 0 0 1 -.373-1.262c.783-1.218 1.125-2.747.1-3.768-2.281-2.281-6.969 1.227-14.057.36l-.219 30.842c7.135-2.378 12.874.94 14.708-1.12a3.1 3.1 0 0 0 .031-3.776.9.9 0 0 1 .267-1.209 3.208 3.208 0 0 0 1.354-2.788z" fill="#f5f6ff"></path><path d="m37.435 126.146a4.356 4.356 0 0 1 -4.359-4.4c.211-19.934 1.091-101.385 1.549-115.736a3.5 3.5 0 0 1 3.5-3.5 3.5 3.5 0 0 1 3.5 3.5s-.3 24.413-.211 35.656c.036 4.568.305 63.438.381 80.109a4.354 4.354 0 0 1 -4.359 4.373z" fill="#2ab7c6"></path><g fill="#3c3559"><path d="m50 27.838c-.924-.569-4.823-.532-7.073-.46.009-1.534.019-3.073.031-4.585a26.313 26.313 0 0 0 3.445-.455 1.5 1.5 0 1 0 -.6-2.94 23.478 23.478 0 0 1 -2.823.386c.012-1.448.025-2.845.037-4.159h.357c4.816 0 5.514-.367 5.908-.574a1.529 1.529 0 0 0 .661-2.041 1.47 1.47 0 0 0 -1.994-.644c-.087.032-.909.272-4.9.258.04-3.893.072-6.533.073-6.618a5 5 0 0 0 -10-.048c-.45 14.1-1.3 91.813-1.549 115.6a6.044 6.044 0 0 0 .989 3.5 5.874 5.874 0 0 0 9.733.007 6.083 6.083 0 0 0 .994-3.483l-.005-1.1c-.084-18.394-.34-74.371-.375-78.831-.024-3.03-.019-7.045 0-11.284a42.015 42.015 0 0 1 5.713.127 1.5 1.5 0 0 0 1.378-2.656zm-11.037 96.37a2.86 2.86 0 0 1 -4.389-2.449c.249-23.576 1.1-101.6 1.549-115.751a2 2 0 0 1 4-.019c0 .089-.042 3.4-.088 8.095v.007c-.08 8.16-.179 20.523-.123 27.585.035 4.455.291 60.428.375 78.821l.006 1.283a2.856 2.856 0 0 1 -1.328 2.428z"></path><path d="m41.4 38.352a1.5 1.5 0 0 1 -.474-2.923 23.615 23.615 0 0 1 10.611-.679c1.393.156 3.128.35 3.45-.017.157-.175.631-.708-.14-2.016a2.411 2.411 0 0 1 .716-3.212 1.769 1.769 0 0 0 .7-1.568 1.827 1.827 0 0 0 -.95-1.48 2.378 2.378 0 0 1 -1.013-1.746 2.414 2.414 0 0 1 .7-1.923c1.318-1.32.588-3.115-.256-4.388a2.4 2.4 0 0 1 .214-2.922 3.186 3.186 0 0 0 .917-2.434 1.145 1.145 0 0 0 -.607-1.031 2.44 2.44 0 0 1 -1.241-1.532 2.353 2.353 0 0 1 .287-1.881c.088-.136.846-1.355.306-1.895-.587-.587-1.894-.35-4.153.118a26.468 26.468 0 0 1 -9.026.67 1.5 1.5 0 0 1 .365-2.978 23.85 23.85 0 0 0 8.052-.629c2.749-.572 5.123-1.062 6.883.7 1.273 1.271 1.417 3.178.423 5.079a4.213 4.213 0 0 1 1.688 3.045 6.059 6.059 0 0 1 -1.367 4.416c1.615 2.666 1.637 5.321.076 7.285a4.59 4.59 0 0 1 1.7 3.566 4.83 4.83 0 0 1 -1.583 3.675 4.358 4.358 0 0 1 -.453 5.075c-1.355 1.522-3.518 1.281-6.022 1a20.746 20.746 0 0 0 -9.331.542 1.486 1.486 0 0 1 -.472.083z"></path><path d="m98.6 22.634h-24.118a1.5 1.5 0 0 1 -1.5-1.5v-13.448a6.033 6.033 0 0 1 5.105-5.965 52.7 52.7 0 0 1 16.913 0 6.033 6.033 0 0 1 5.1 5.965v13.448a1.5 1.5 0 0 1 -1.5 1.5zm-22.618-3h21.118v-11.948a3.046 3.046 0 0 0 -2.585-3 49.721 49.721 0 0 0 -15.947 0 3.046 3.046 0 0 0 -2.586 3z"></path></g><path d="m105.87 125.52h-38.65a2.939 2.939 0 0 1 -2.92-3.26c.13-1.19.29-2.67.46-4.43.05-.47.1-.97.15-1.49.04-.48.09-.98.13-1.5.56-6.35 1.18-15.08 1.43-24.89.55-21.53-2.01-52.83 1.17-62.12 3.09-9.04 13.8-7.93 18.9-7.93s15.81-1.11 18.9 7.93c3.18 9.29.62 40.59 1.17 62.12.26 9.81.88 18.54 1.44 24.89.04.52.08 1.02.13 1.5.05.52.1 1.02.15 1.49.17 1.76.32 3.24.45 4.43a2.926 2.926 0 0 1 -2.91 3.26z" fill="#2ab7c6"></path><path d="m105.87 125.52h-38.65a2.939 2.939 0 0 1 -2.92-3.26c.17-1.51.38-3.51.61-5.92h43.27c.23 2.41.44 4.41.6 5.92a2.926 2.926 0 0 1 -2.91 3.26z" fill="#494270"></path><path d="m86.542 65.058c2.965 0 1.478 12.945 4.249 13.412 3.8.641 2.866-7.482 5.534-12.226s5.362-11.465 2.669-16.085c-2.052-3.521-6.91-3.672-10.126-2.093a5.29 5.29 0 0 1 -4.654 0c-3.214-1.579-8.074-1.428-10.126 2.093-2.693 4.62 0 11.341 2.669 16.085s1.743 12.867 5.535 12.226c2.771-.47 1.285-13.412 4.25-13.412z" fill="#fff"></path><path d="m110.275 122.1c-.65-5.859-1.8-17.828-2.164-32.183-.2-7.623 0-16.551.195-25.184.356-16.017.693-31.146-1.443-37.388-3.164-9.247-13.348-9.069-18.818-8.962-1.082.019-1.926.019-3.008 0-5.469-.1-15.654-.283-18.818 8.962-2.136 6.242-1.8 21.371-1.442 37.388.192 8.633.39 17.561.194 25.184-.369 14.36-1.514 26.327-2.163 32.182a4.432 4.432 0 0 0 4.409 4.921h38.649a4.432 4.432 0 0 0 4.409-4.92zm-41.217-93.788c2.157-6.3 8.672-6.958 13.859-6.958.719 0 1.413.012 2.065.024 1.122.019 2 .019 3.118 0 5.358-.1 13.469-.243 15.924 6.934 1.963 5.738 1.617 21.3 1.283 36.35-.193 8.669-.393 17.634-.2 25.328.251 9.766.859 18.429 1.429 24.85h-40c.569-6.419 1.177-15.081 1.428-24.849.2-7.695 0-16.66-.194-25.329-.329-15.05-.67-30.612 1.288-36.35zm37.88 95.225a1.417 1.417 0 0 1 -1.072.479h-38.649a1.433 1.433 0 0 1 -1.428-1.59c.139-1.257.3-2.807.474-4.586h40.556c.172 1.779.335 3.33.474 4.587a1.407 1.407 0 0 1 -.355 1.11z" fill="#3c3559"></path><path d="m91.284 80.015a4.462 4.462 0 0 1 -.742-.065c-2.48-.419-2.848-3.929-3.272-7.993a33.3 33.3 0 0 0 -.728-4.793 33.168 33.168 0 0 0 -.729 4.792c-.425 4.065-.792 7.575-3.271 7.994-3.722.627-4.536-3.383-5.257-6.919a21.877 21.877 0 0 0 -1.836-6.052c-2.89-5.138-5.7-12.359-2.657-17.576 2.445-4.192 8.064-4.657 12.083-2.684a3.8 3.8 0 0 0 3.333 0c4.019-1.973 9.637-1.509 12.082 2.683 3.041 5.219.233 12.439-2.658 17.577a21.91 21.91 0 0 0 -1.832 6.052c-.673 3.288-1.426 6.984-4.516 6.984zm-4.742-16.457c2.865 0 3.276 3.927 3.711 8.087.181 1.728.476 4.553.957 5.343.7-.151 1.127-2 1.648-4.555a24.039 24.039 0 0 1 2.16-6.924c2.052-3.648 5.128-10.394 2.68-14.6-1.544-2.645-5.441-2.84-8.168-1.5a6.834 6.834 0 0 1 -5.977 0c-2.727-1.34-6.625-1.145-8.169 1.5-2.448 4.2.628 10.947 2.68 14.6a24.042 24.042 0 0 1 2.16 6.923c.521 2.552.953 4.405 1.648 4.556.482-.791.777-3.616.958-5.343.435-4.16.846-8.087 3.712-8.087z" fill="#3c3559"></path></svg>