<svg enable-background="new 0 0 512 512" viewBox="0 0 512 512" xmlns="http://www.w3.org/2000/svg"><path d="m345.03 274.685c-24.241-3.874-49.331-5.314-72.43-12.814-39.998-12.986-64.2-47.286-64.022-83.748.187-38.294 25.36-72.093 64.738-87.101 32.116-12.24 65.549-16.541 98.924-9.709 17.283 3.538 33.203 13.983 49.56 21.686 7.981 3.758 15.146 9.606 23.399 12.35 14.991 4.984 22.429-.408 22.874-16.245.311-11.075 6.165-12.279 14.608-10.359 19.441 4.42 30.518 23.59 25.326 43.462-6.105 23.364-32.355 43.087-60.583 44.612-14.273.771-28.743 1.77-42.878.583-49.573-4.163-52.993 36.558-3.42 40.721 11.233.943 22.66 1.372 33.822 3.144 21.97 3.488 34.926 17.281 35.963 36.949 1.058 20.061-9.801 33.493-32.511 39.632-9.512 2.571-19.487 3.66-28.746 6.879-14.816 5.151-16.7 14.821-6.457 26.796.034.04.068.08.101.12 3.557 4.299 1.165 11.089-4.332 12.045-.627.109-1.241.134-1.838.042-7.722-1.188-15.585-3.05-22.717-6.179-23.011-10.094-25.024-26.985-5.625-42.526.527-.422 1.114-.909 1.737-1.437 4.548-3.856 3.046-11.214-2.654-12.965-7.604-2.337-16.932-4.994-22.839-5.938z" fill="#bfbcaf"/><path d="m376.922 369.511h54.826v86.53h-54.826z" fill="#ffb636"/><path d="m124.349 369.511h263.301v86.53h-263.301z" fill="#e5e4df"/><path d="m17.992 369.511c-9.937 0-17.992 19.37-17.992 43.265s8.055 43.265 17.992 43.265h155.03v-86.53z" fill="#d19b61"/><ellipse cx="386.343" cy="412.776" fill="#ffb636" rx="17.992" ry="43.265"/><ellipse cx="173.022" cy="412.776" fill="#e5e4df" rx="17.992" ry="43.265"/><ellipse cx="431.748" cy="412.776" fill="#ffd469" rx="22.964" ry="43.265"/></svg>