<!-- icon666.com - MILLIONS vector ICONS FREE --><svg version="1.1" id="Capa_1" xmlns="http://www.w3.org/2000/svg" xmlns:xlink="http://www.w3.org/1999/xlink" x="0px" y="0px" viewBox="0 0 512 512" style="enable-background:new 0 0 512 512;" xml:space="preserve"><path style="fill:#795548;" d="M374.467,311.772c-1.985,0-4-0.371-5.953-1.157c-8.183-3.291-12.148-12.591-8.858-20.774 L472.19,10.015c3.287-8.184,12.592-12.147,20.772-8.858c8.183,3.291,12.148,12.591,8.858,20.774L389.286,301.758 C386.783,307.986,380.791,311.772,374.467,311.772z"></path><path style="fill:#6B493E;" d="M492.962,1.158c-4.557-1.833-9.431-1.349-13.452,0.795c7.107,3.786,10.411,12.339,7.339,19.976 L374.315,301.756c-1.464,3.645-4.187,6.316-7.407,8.015c0.532,0.289,1.033,0.612,1.606,0.842c1.953,0.788,3.969,1.158,5.953,1.158 c6.323,0,12.316-3.786,14.819-10.016L501.819,21.93C505.109,13.751,501.145,4.449,492.962,1.158z"></path><path style="fill:#664237;" d="M411.746,300.419c-1.883,0-3.793-0.335-5.661-1.042l-57.887-21.957 c-8.246-3.128-12.394-12.348-9.267-20.594c3.126-8.246,12.335-12.397,20.596-9.267l57.887,21.957 c8.246,3.128,12.394,12.348,9.267,20.594C424.26,296.492,418.19,300.419,411.746,300.419z"></path><path style="fill:#51322B;" d="M417.414,269.515l-8.612-3.267c4.53,4.596,6.269,11.556,3.832,17.984 c-2.583,6.803-9.056,10.994-15.929,10.994c-0.68,0-1.364-0.102-2.051-0.183l11.431,4.335c1.868,0.706,3.778,1.041,5.661,1.041 c6.445,0,12.514-3.926,14.936-10.308C429.808,281.866,425.66,272.642,417.414,269.515z"></path><path style="fill:#FEC007;" d="M407.789,297.983l-58.249-22.99c-22.756-8.978-48.491-1.298-62.6,18.659l-83.246,117.714 c-2.83,4.004-3.669,9.084-2.265,13.782c1.399,4.698,4.881,8.491,9.438,10.292l188.653,74.448c1.891,0.749,3.879,1.115,5.863,1.115 c2.799,0,5.587-0.737,8.063-2.187c4.234-2.476,7.092-6.756,7.758-11.614l19.571-142.841 C444.096,330.138,430.533,306.953,407.789,297.983z"></path><path style="fill:#F8A725;" d="M407.789,297.983l-58.249-22.99c-10.483-4.136-21.565-4.588-31.886-2.082 c2.328,0.569,4.653,1.181,6.936,2.082l58.249,22.99c22.745,8.971,36.308,32.155,32.986,56.378l-19.571,142.841 c-0.503,3.661-2.251,6.986-4.892,9.466l8.159,3.22c1.891,0.749,3.879,1.115,5.863,1.115c2.799,0,5.587-0.737,8.063-2.187 c4.234-2.476,7.092-6.756,7.758-11.614l19.571-142.841C444.096,330.138,430.533,306.953,407.789,297.983z"></path><path style="fill:#FE9700;" d="M440.775,354.36c3.322-24.222-10.242-47.407-32.986-56.378l-58.249-22.99 c-22.756-8.978-48.491-1.298-62.6,18.659L440.775,354.36z"></path><path style="fill:#F47C00;" d="M407.789,297.983l-58.249-22.99c-10.483-4.136-21.565-4.588-31.886-2.082 c2.328,0.569,4.653,1.181,6.936,2.082l58.249,22.99c19.68,7.762,32.433,26.175,33.376,46.685l24.561,9.692 C444.096,330.138,430.533,306.953,407.789,297.983z"></path><g><path style="fill:#FE9700;" d="M261.831,455.552l10.509-20.21c3.049-5.867,0.768-13.099-5.103-16.152 c-5.883-3.056-13.099-0.764-16.152,5.1l-11.657,22.421L261.831,455.552z"></path><path style="fill:#FE9700;" d="M312.462,475.533l21.736-49.559c2.659-6.054-0.098-13.119-6.156-15.777 c-6.07-2.659-13.123,0.102-15.777,6.156l-22.097,50.382L312.462,475.533z"></path><path style="fill:#FE9700;" d="M365.543,445.393c-6.249-2.133-13.061,1.212-15.201,7.474l-11.302,33.154l22.308,8.803l11.669-34.23 C375.149,454.332,371.804,447.529,365.543,445.393z"></path></g><path style="fill:#AFBDC4;" d="M133.779,431.1c-0.031-23.637-19.271-42.857-42.916-42.857c-19.107,0-35.52,12.823-40.955,30.327 c-23.033,2.967-40.885,22.698-40.885,46.522C9.024,490.956,30.068,512,55.932,512h84.833c6.616,0,11.977-5.365,11.977-11.977 v-39.423C152.742,447.525,144.956,436.227,133.779,431.1z"></path><path style="fill:#8FA3AD;" d="M133.779,431.1c-0.031-23.637-19.271-42.857-42.916-42.857c-5.965,0-11.606,1.372-16.795,3.622 c15.128,6.628,25.754,21.696,25.778,39.236c11.178,5.127,18.963,16.425,18.963,29.501v39.423c0,6.612-5.361,11.977-11.977,11.977 h33.934c6.616,0,11.977-5.365,11.977-11.977v-39.423C152.742,447.525,144.956,436.227,133.779,431.1z"></path><path style="fill:#546E7A;" d="M184.695,433.155c-11.832,0-21.458,9.625-21.458,21.458s9.625,21.458,21.458,21.458 c11.832,0,21.458-9.625,21.458-21.458S196.527,433.155,184.695,433.155z"></path><path style="fill:#455A64;" d="M184.695,433.155c-2.091,0-4.074,0.394-5.988,0.955c8.907,2.612,15.47,10.764,15.47,20.503 c0,9.738-6.563,17.891-15.47,20.503c1.914,0.561,3.896,0.955,5.988,0.955c11.832,0,21.458-9.625,21.458-21.458 C206.153,442.78,196.527,433.155,184.695,433.155z"></path><path style="fill:#546E7A;" d="M169.724,312.392c-19.536,0-35.431,15.894-35.431,35.431s15.894,35.431,35.431,35.431 s35.431-15.894,35.431-35.431S189.26,312.392,169.724,312.392z"></path><path style="fill:#455A64;" d="M169.724,312.392c-3.214,0-6.269,0.569-9.232,1.376c15.045,4.09,26.199,17.731,26.199,34.054 c0,16.323-11.154,29.965-26.199,34.054c2.963,0.807,6.018,1.376,9.232,1.376c19.536,0,35.431-15.894,35.431-35.431 S189.26,312.392,169.724,312.392z"></path></svg>