<?xml version="1.0" encoding="iso-8859-1"?>
<!-- Uploaded to: SVG Repo, www.svgrepo.com, Generator: SVG Repo Mixer Tools -->
<svg version="1.1" id="Layer_1" xmlns="http://www.w3.org/2000/svg" xmlns:xlink="http://www.w3.org/1999/xlink" 
	 viewBox="0 0 512 512" xml:space="preserve">
<circle style="fill:#FFD15D;" cx="256" cy="256" r="256"/>
<path style="fill:#F9B54C;" d="M512,256c0-0.945-0.026-1.884-0.036-2.826L398.222,139.431l-155.8,152.207L138.845,405.516
	l106.236,106.236c3.622,0.152,7.259,0.248,10.918,0.248C397.384,512,512,397.384,512,256z"/>
<rect x="199.111" y="139.431" style="fill:#FFFFFF;" width="199.111" height="256"/>
<polygon style="fill:#D0D1D3;" points="398.222,139.431 302.545,139.431 301.971,139.431 300.248,139.431 300.248,395.431 
	398.222,395.431 "/>
<g>
	<rect x="227.556" y="193.733" style="fill:#B8C9D9;" width="142.222" height="5.172"/>
	<polyline style="fill:#B8C9D9;" points="227.556,193.734 227.556,198.906 300.248,198.906 300.248,193.734 	"/>
</g>
<g>
	<rect x="300.253" y="193.733" style="fill:#99ACBC;" width="69.525" height="5.172"/>
	<rect x="300.253" y="222.177" style="fill:#99ACBC;" width="69.525" height="5.172"/>
</g>
<g>
	<rect x="227.556" y="222.177" style="fill:#B8C9D9;" width="72.697" height="5.172"/>
	<rect x="227.556" y="250.621" style="fill:#B8C9D9;" width="72.697" height="5.172"/>
</g>
<rect x="300.253" y="250.621" style="fill:#99ACBC;" width="69.525" height="5.172"/>
<rect x="227.556" y="279.066" style="fill:#B8C9D9;" width="72.697" height="5.172"/>
<g>
	<rect x="300.253" y="279.066" style="fill:#99ACBC;" width="69.525" height="5.172"/>
	<rect x="300.253" y="307.51" style="fill:#99ACBC;" width="69.525" height="5.172"/>
</g>
<g>
	<rect x="227.556" y="307.51" style="fill:#B8C9D9;" width="72.697" height="5.172"/>
	<rect x="227.556" y="335.955" style="fill:#B8C9D9;" width="72.697" height="5.172"/>
</g>
<rect x="300.253" y="335.955" style="fill:#99ACBC;" width="69.525" height="5.172"/>
<path style="fill:#C1321F;" d="M187.618,277.43c-40.781,0-73.84,14.6-73.84,55.38c0,28.057,15.651,72.025,38.697,84.516
	c7.725,4.187,17.103,3.162,24.148-2.088c3.069-2.286,6.871-3.639,10.993-3.639s7.925,1.353,10.993,3.639
	c7.046,5.249,16.425,6.275,24.148,2.088c23.045-12.491,38.697-56.461,38.697-84.516C261.458,292.03,228.399,277.43,187.618,277.43z"
	/>
<path style="fill:#A82116;" d="M187.618,277.43c-0.124,0-0.248,0.003-0.372,0.003v134.182c0.124-0.003,0.247-0.016,0.372-0.016
	c4.122,0,7.925,1.353,10.993,3.639c7.046,5.248,16.424,6.273,24.148,2.088c23.045-12.491,38.697-56.461,38.697-84.516
	C261.458,292.03,228.399,277.43,187.618,277.43z"/>
<path style="fill:#2C9984;" d="M231.727,253.388c0,0-38.264-4.779-44.11,35.188C187.618,288.577,221.668,297.669,231.727,253.388z"
	/>
<path style="fill:#268472;" d="M187.725,288.603c2.069,0.505,34.123,7.596,43.935-34.933L187.725,288.603z"/>
<path style="fill:#935635;" d="M187.621,301.484c-0.079,0-0.157-0.002-0.238-0.005c-3.086-0.128-5.485-2.736-5.356-5.822
	c0.802-19.213-16.056-32.084-16.227-32.213c-2.472-1.853-2.972-5.36-1.119-7.832c1.855-2.47,5.36-2.974,7.832-1.119
	c0.888,0.665,21.735,16.598,20.694,41.627C193.081,299.13,190.604,301.484,187.621,301.484z"/>
<path style="fill:#804000;" d="M187.245,271.939v29.518c0.048,0.003,0.091,0.017,0.14,0.021c0.079,0.003,0.159,0.005,0.238,0.005
	c2.982,0,5.46-2.353,5.585-5.361C193.602,286.644,190.855,278.475,187.245,271.939z"/>
</svg>