<?xml version="1.0" ?>
<!-- Uploaded to: SVG Repo, www.svgrepo.com, Generator: SVG Repo Mixer Tools -->
<svg width="800px" height="800px" viewBox="0 0 64 64" xmlns="http://www.w3.org/2000/svg">
<g id="a"/>
<g id="b"/>
<g id="c"/>
<g id="d"/>
<g id="e"/>
<g id="f"/>
<g id="g"/>
<g id="h"/>
<g id="i"/>
<g id="j"/>
<g id="k"/>
<g id="l"/>
<g id="m"/>
<g id="n"/>
<g id="o"/>
<g id="p"/>
<g id="q"/>
<g id="r"/>
<g id="s"/>
<g id="t"/>
<g id="u"/>
<g id="v"/>
<g id="w"/>
<g id="x"/>
<g id="y"/>
<g id="a`"/>
<g id="aa"/>
<g id="ab"/>
<g id="ac"/>
<g id="ad"/>
<g id="ae"/>
<g id="af"/>
<g id="ag"/>
<g id="ah"/>
<g id="ai"/>
<g id="aj"/>
<g id="ak"/>
<g id="al"/>
<g id="am"/>
<g id="an"/>
<g id="ao"/>
<g id="ap"/>
<g id="aq"/>
<g id="ar"/>
<g id="as"/>
<g id="at"/>
<g id="au">
<path d="M8.39,17.1H55.61c0,1.87,1.52,3.39,3.39,3.39v23.02c-1.87,0-3.39,1.52-3.39,3.39H8.39c0-1.87-1.52-3.39-3.39-3.39V20.49c1.87,0,3.39-1.52,3.39-3.39Z" fill="#f5e680" fill-rule="evenodd"/>
<path d="M52.01,17.1c0,1.87,1.52,3.39,3.39,3.39v23.02c-1.87,0-3.39,1.52-3.39,3.39h3.6c0-1.87,1.52-3.39,3.39-3.39V20.49c-1.87,0-3.39-1.52-3.39-3.39h-3.6Z" fill="#f2d865" fill-rule="evenodd"/>
<path d="M12.42,27.68c-.55,0-1,.45-1,1v4.99c0,.62-.51,1.12-1.13,1.12s-1.13-.5-1.13-1.12v-.92c0-.55-.45-1-1-1s-1,.45-1,1v.92c0,1.72,1.41,3.12,3.13,3.12s3.13-1.4,3.13-3.12v-4.99c0-.55-.45-1-1-1Z"/>
<path d="M18.31,33v2.79c0,.55,.45,1,1,1s1-.45,1-1v-5.61c0-1.64-1.33-2.97-2.97-2.97s-2.97,1.33-2.97,2.97v5.61c0,.55,.45,1,1,1s1-.45,1-1v-2.79h1.94Zm-.97-3.79c.53,0,.97,.44,.97,.97v.82h-1.94v-.82c0-.54,.43-.97,.97-.97Z"/>
<path d="M27.03,34.19c-.39-.39-1.02-.39-1.41,0-.26,.26-.61,.41-.98,.41-.76,0-1.38-.62-1.38-1.38v-2.63c0-.76,.62-1.38,1.38-1.38,.37,0,.71,.15,.98,.41,.39,.39,1.03,.39,1.41,0,.39-.39,.39-1.02,0-1.41-.64-.64-1.49-.99-2.39-.99-1.86,0-3.38,1.52-3.38,3.38v2.63c0,1.86,1.52,3.38,3.38,3.38,.9,0,1.75-.35,2.39-.99,.39-.39,.39-1.02,0-1.41Z"/>
<path d="M33.58,28c-.38-.4-1.01-.43-1.41-.05l-1.89,1.76v-1.5c0-.55-.45-1-1-1s-1,.45-1,1v7.58c0,.55,.45,1,1,1s1-.45,1-1v-1.5l1.89,1.76c.19,.18,.44,.27,.68,.27,.27,0,.54-.11,.73-.32,.38-.4,.35-1.04-.05-1.41l-2.79-2.59,2.79-2.59c.4-.38,.43-1.01,.05-1.41Z"/>
<path d="M41.24,30.11c0-1.6-1.3-2.9-2.9-2.9h-2.55c-.55,0-1,.45-1,1v7.58c0,.55,.45,1,1,1s1-.45,1-1v-2.79h1.55c1.6,0,2.9-1.3,2.9-2.89Zm-2.9,.89h-1.55v-1.79h1.55c.49,0,.9,.4,.9,.9s-.39,.89-.9,.89Z"/>
<path d="M45.57,27.21c-1.86,0-3.38,1.52-3.38,3.38v2.63c0,1.86,1.51,3.38,3.38,3.38s3.38-1.52,3.38-3.38v-2.63c0-1.86-1.52-3.38-3.38-3.38Zm1.38,6.01c0,.76-.62,1.38-1.38,1.38s-1.38-.62-1.38-1.38v-2.63c0-.76,.62-1.38,1.38-1.38s1.38,.62,1.38,1.38v2.63Z"/>
<path d="M50.9,27.21c-.55,0-1,.45-1,1s.45,1,1,1h1.47v6.58c0,.55,.45,1,1,1s1-.45,1-1v-6.58h1.47c.55,0,1-.45,1-1s-.45-1-1-1h-4.95Z"/>
<path d="M59,19.49c-1.32,0-2.39-1.07-2.39-2.39,0-.55-.45-1-1-1H8.39c-.55,0-1,.45-1,1,0,1.32-1.07,2.39-2.39,2.39-.55,0-1,.45-1,1v23.02c0,.55,.45,1,1,1,1.32,0,2.39,1.07,2.39,2.39,0,.55,.45,1,1,1H55.61c.55,0,1-.45,1-1,0-1.32,1.07-2.39,2.39-2.39,.55,0,1-.45,1-1V20.49c0-.55-.45-1-1-1Zm-1,23.13c-1.62,.38-2.9,1.66-3.28,3.28H9.28c-.38-1.62-1.66-2.9-3.28-3.28V21.38c1.62-.38,2.9-1.66,3.28-3.28H54.72c.38,1.62,1.66,2.9,3.28,3.28v21.25Z"/>
<path d="M27.39,23.42c.27,0,.52-.1,.71-.29,.39-.39,.39-1.03,0-1.41-.19-.19-.44-.3-.71-.3s-.52,.11-.71,.3c-.39,.38-.39,1.02,0,1.41,.19,.19,.44,.29,.71,.29Z"/>
<path d="M32,23.42c.27,0,.52-.1,.71-.29,.39-.39,.39-1.03,0-1.41-.19-.19-.44-.3-.71-.3s-.52,.11-.71,.3c-.39,.38-.39,1.02,0,1.41,.19,.19,.44,.29,.71,.29Z"/>
<path d="M36.61,23.42c.27,0,.52-.1,.71-.29,.39-.39,.39-1.03,0-1.41-.19-.19-.44-.3-.71-.3s-.52,.11-.71,.3c-.39,.38-.39,1.02,0,1.41,.19,.19,.44,.29,.71,.29Z"/>
<path d="M17.83,23.44h0l5.13-.02c.55,0,1-.45,1-1,0-.55-.45-1-1-1h0l-5.13,.02c-.55,0-1,.45-1,1,0,.55,.45,1,1,1Z"/>
<path d="M41.04,23.44h0l5.13-.02c.55,0,1-.45,1-1,0-.55-.45-1-1-1h0l-5.13,.02c-.55,0-1,.45-1,1,0,.55,.45,1,1,1Z"/>
<path d="M27.39,40.58c-.27,0-.52,.1-.71,.29-.39,.39-.39,1.03,0,1.41,.19,.19,.44,.3,.71,.3s.52-.11,.71-.3c.39-.38,.39-1.02,0-1.41-.19-.19-.44-.29-.71-.29Z"/>
<path d="M32,40.58c-.27,0-.52,.1-.71,.29-.39,.39-.39,1.03,0,1.41,.19,.19,.44,.3,.71,.3s.52-.11,.71-.3c.39-.38,.39-1.02,0-1.41-.19-.19-.44-.29-.71-.29Z"/>
<path d="M36.61,40.58c-.26,0-.52,.1-.71,.29-.39,.39-.39,1.03,0,1.41,.19,.19,.44,.3,.71,.3s.52-.11,.71-.3c.39-.38,.39-1.02,0-1.41-.19-.19-.44-.29-.71-.29Z"/>
<path d="M22.96,40.58h-5.13c-.55,.01-1,.46-1,1.01,0,.55,.45,1,1,1h5.13c.55-.01,1-.46,1-1.01,0-.55-.45-1-1-1Z"/>
<path d="M46.17,40.58h-5.13c-.55,.01-1,.46-1,1.01,0,.55,.45,1,1,1h5.13c.55-.01,1-.46,1-1.01,0-.55-.45-1-1-1Z"/>
<path d="M32,12.34c.55,0,1-.45,1-1v-2.44c0-.55-.45-1-1-1s-1,.45-1,1v2.44c0,.55,.45,1,1,1Z"/>
<path d="M23.91,13.95c.19,.16,.42,.24,.66,.24,.28,0,.56-.12,.76-.34,.36-.42,.32-1.05-.1-1.41l-2.13-1.85c-.42-.36-1.05-.32-1.41,.1-.36,.42-.32,1.05,.1,1.41l2.13,1.85Z"/>
<path d="M39.44,14.19c.23,0,.47-.08,.66-.24l2.13-1.85c.42-.36,.46-.99,.1-1.41-.36-.42-.99-.46-1.41-.1l-2.13,1.85c-.42,.36-.46,.99-.1,1.41,.2,.23,.48,.34,.76,.34Z"/>
<path d="M33,55.1v-2.44c0-.55-.45-1-1-1s-1,.45-1,1v2.44c0,.55,.45,1,1,1s1-.45,1-1Z"/>
<path d="M23.08,53.42l2.13-1.85c.42-.36,.46-.99,.1-1.41-.36-.42-.99-.46-1.41-.1l-2.13,1.85c-.42,.36-.46,.99-.1,1.41,.2,.23,.48,.34,.76,.34,.23,0,.47-.08,.66-.24Z"/>
<path d="M41.57,53.66c.28,0,.56-.12,.76-.34,.36-.42,.32-1.05-.1-1.41l-2.13-1.85c-.42-.36-1.05-.32-1.41,.1-.36,.42-.32,1.05,.1,1.41l2.13,1.85c.19,.16,.42,.24,.66,.24Z"/>
</g>
<g id="av"/>
<g id="aw"/>
<g id="ax"/>
</svg>