<!-- icon666.com - MILLIONS vector ICONS FREE --><svg id="Capa_1" enable-background="new 0 0 512 512" viewBox="0 0 512 512" xmlns="http://www.w3.org/2000/svg"><g><g><g><g><g><g><g><path d="m145.568 487.022c-86.103-41.233-145.568-129.183-145.568-231.022 0-141.385 114.615-256 256-256s256 114.615 256 256c0 101.858-59.487 189.822-145.616 231.045z" fill="#7584f2"></path></g></g></g></g></g></g><path d="m511.555 271.221-177.083-177.082 15.898 392.904 16.015.002c81.806-39.155 139.579-120.479 145.17-215.824z" fill="#4253ce"></path><g><path d="m256 61.405c-60.996 0-110.443 49.447-110.443 110.443v315.169c33.438 16.014 70.893 24.983 110.443 24.983.448 0 .892-.017 1.339-.019l10-216.277-10-234.283c-.446-.005-.891-.016-1.339-.016z" fill="#ffbeaa"></path></g><g><path d="m366.443 171.848c0-60.982-49.424-110.42-110.401-110.443v450.595c39.535-.006 76.975-8.974 110.401-24.983z" fill="#faa68e"></path></g><g><path d="m172.923 323.667v41.049h84.416l10-20.525-10-20.524z" fill="#faa68e"></path></g><g><path d="m256.042 323.667h83.035v41.05h-83.035z" fill="#e09380"></path></g><g><path d="m172.923 397.947v41.05h84.416l10-20.525-10-20.525z" fill="#faa68e"></path></g><g><path d="m256.042 397.947h83.035v41.05h-83.035z" fill="#e09380"></path></g><g><path d="m240.55 109.948c-2.776 0-5.465-.369-8.022-1.061-5.291 15.77-19.752 27.333-37.048 28.354-1.046 11.948-9.42 21.795-20.603 25.019v107.327h82.461l10-69.712-10-94.942c-4.821 3.167-10.587 5.015-16.788 5.015z" fill="#fff"></path></g><g><path d="m337.122 140.662c-5.059 1.219-10.342 1.865-15.775 1.865-27.273 0-50.747-16.269-61.246-39.631-1.27 1.054-2.628 2.004-4.058 2.845v163.845h81.08v-128.924z" fill="#e9edf5"></path></g></g></svg>