<!-- icon666.com - MILLIONS vector ICONS FREE --><svg id="Enough_Sleep" viewBox="0 0 48 48" xmlns="http://www.w3.org/2000/svg" data-name="Enough Sleep"><path d="m7 30h34v12h-34z" fill="#009ae0"></path><path d="m7 45h-3a2 2 0 0 1 -2-2v-23.5a3.5 3.5 0 0 1 7 0v23.5a2 2 0 0 1 -2 2z" fill="#0081bd"></path><path d="m44 45h-3a2 2 0 0 1 -2-2v-17.5a3.5 3.5 0 0 1 7 0v17.5a2 2 0 0 1 -2 2z" fill="#0081bd"></path><circle cx="14" cy="26" fill="#ffd188" r="5"></circle><path d="m18 25a4 4 0 0 1 4-4h13a4 4 0 0 1 4 4v8.71a1 1 0 0 1 -1.214.976 31.89 31.89 0 0 0 -6.786-.686 16.606 16.606 0 0 0 -4.61.792 28.463 28.463 0 0 1 -7.345 1.192 1.006 1.006 0 0 1 -1.045-1z" fill="#eaeff0"></path><path d="m21 19h-4a1 1 0 0 1 -.707-1.707l2.293-2.293h-1.586a1 1 0 0 1 0-2h4a1 1 0 0 1 .707 1.707l-2.293 2.293h1.586a1 1 0 0 1 0 2z" fill="#2d4a60"></path><path d="m15 12h-6a1 1 0 0 1 -.707-1.707l4.293-4.293h-3.586a1 1 0 0 1 0-2h6a1 1 0 0 1 .707 1.707l-4.293 4.293h3.586a1 1 0 0 1 0 2z" fill="#2d4a60"></path><circle cx="33" cy="12" fill="#009ae0" r="8"></circle><circle cx="33" cy="12" fill="#eaeff0" r="6"></circle><path d="m35 13h-2a1 1 0 0 1 -1-1v-3a1 1 0 0 1 2 0v2h1a1 1 0 0 1 0 2z" fill="#0081bd"></path></svg>