<?xml version="1.0" encoding="utf-8"?>
<!-- Uploaded to: SVG Repo, www.svgrepo.com, Generator: SVG Repo Mixer Tools -->
<svg width="800px" height="800px" viewBox="-32.38 0 334.456 334.456" xmlns="http://www.w3.org/2000/svg"><defs><style>.a{fill:#ffffff;}.b{fill:#a98a75;}.c{fill:#211715;}.d{fill:#f8b8b4;}.e{fill:#f2635f;}</style></defs><path class="a" d="M53.35,288.687q-.9.042-1.783.086s-.391.019-.932.04c-.456,3.683-1.728,13.8-2.058,16.967-1.48,7.393-1.812,10.643-2.895,17.61h127.7c0-8.837.028-25.911.028-34.661-4.111,0-18.113.108-18.113.108C121.919,287.338,81.913,287.348,53.35,288.687Z"/><path class="b" d="M145.96,148.65c9-5.494,8.433-12.086,8.074-16.041a44.151,44.151,0,0,0-4.116-15.214c-2.894-6.6-8.361-20.049-10.643-44.687a119.031,119.031,0,0,0-1.189-15.621c-.316-2.416-.619-4.456-.83-5.791-2.47-15.97-13.662-33.458-26.352-39.365-15.61-9.767-28.795-10.819-41.532-8.5C51.3,6.714,37.581,15.656,29.283,28.488c-4.791,7.409-7.6,17.633-8.025,26.473A89.925,89.925,0,0,0,25.74,85.053c4.01,19.047.661,40.026,3.892,55.618,1.013,4.957,4.2,10.694,11.678,14.664Z"/><path class="a" d="M45.155,62.35c2.648-2.674,5.266-5.375,7.812-8.036a.457.457,0,0,1,.777.408,32.747,32.747,0,0,0-.6,7.989,2.065,2.065,0,0,0,2.873,1.8C68.63,59.231,79.992,50.956,87.159,40.966a140.534,140.534,0,0,0,7.267,14.523c3.1,5.316,10.813,14.194,17.227,16.649l10.389,1.029a7.794,7.794,0,0,1,5.445-1.891c3.9.129,5.564,2.138,6.277,3.317,2.128,3.524,2.039,10.008.6,14.028a20.407,20.407,0,0,1-6.593,9.919,15,15,0,0,1-7.106,2.555c-.2.58-.383,1.111-.383,1.111-.7,2.052-2.5,5.711-2.5,5.711a67.228,67.228,0,0,1-7.815,12.108l2.293,6.937a26.968,26.968,0,0,0,2.169,5.277c2.6,4.428,15.186,5.99,19.1,6.615l.906.163-.2.212-2.209,2.375a77.887,77.887,0,0,1-43.844,20.985c-6.287.79-12.775.792-18.963-1.1A30.036,30.036,0,0,1,54.574,151.5c3.631-1.871,7.621-3.89,10.123-5.435,2.748-1.392,6.139-3.816,5.613-7.223-8.061.2-15.482-2.038-22.883-6.763-8.969-5.726-13.954-15.671-16.8-27.066q-.191-.764-.369-1.535c-1.6-6.938-3.177-14.5-5.086-22.017l-.1-.388,1.577-1.368c.657-.57,1.7-1.395,2.555-2.154C34.427,72.95,39.853,67.7,45.155,62.35Z"/><path class="c" d="M115.075,17.244c8.086,6.059,13.96,15.417,17.326,24.834a71.681,71.681,0,0,1,3.285,15.009c.367,2.809.684,5.627.906,8.452.225,2.867.138,5.759.422,8.615a165.151,165.151,0,0,0,5.477,29.84q1.342,4.615,3.07,9.107c1.125,2.909,2.479,5.726,3.57,8.647a37.486,37.486,0,0,1,2.648,14.547,10.963,10.963,0,0,1-1.3,4.729,15.845,15.845,0,0,1-5.726,5.553c-2.618,1.629-.21,5.783,2.423,4.145,4.232-2.633,7.95-6.38,9.022-11.407.837-3.924.259-8.2-.5-12.078a44.9,44.9,0,0,0-2.573-8.386c-.438-1.075-.906-2.138-1.369-3.2l-.306-.711c-.042-.1-.084-.2-.127-.3-.159-.372.18.438-.084-.2-1.117-2.7-2.14-5.444-3.045-8.227a147.346,147.346,0,0,1-5.976-28.329c-.7-5.979-.687-11.995-1.384-17.984a93.293,93.293,0,0,0-2.927-16.444C134.342,31.741,127.367,20.5,117.5,13.1a2.415,2.415,0,0,0-3.283.861,2.457,2.457,0,0,0,.861,3.284Z"/><path class="c" d="M22.639,82.311C25.531,93.5,25.518,105.122,25.6,116.6c.036,5.336.068,10.684.518,16.005.38,4.507.881,9.138,2.737,13.307a25.068,25.068,0,0,0,11.249,11.5c2.717,1.469,5.144-2.674,2.422-4.144a20.946,20.946,0,0,1-9.274-9.228c-1.656-3.445-2.033-7.777-2.351-11.628-.889-10.781-.251-21.626-.883-32.42a98.834,98.834,0,0,0-2.745-18.952c-.773-2.988-5.4-1.721-4.629,1.276Z"/><path class="c" d="M64.751,119.328a9.964,9.964,0,0,1,1.291-.772c.112-.057.226-.111.34-.164.05-.023.434-.183.155-.072-.316.127.262-.095.263-.1.125-.046.251-.091.378-.134a16.868,16.868,0,0,1,1.683-.473q.407-.093.818-.166c.137-.024.275-.042.412-.068.377-.071-.574.056.084-.01.54-.054,1.081-.094,1.625-.1.293,0,.587.005.88.023.127.008.253.018.38.03.066.006.479.07.142.012-.376-.065.194.04.216.045.129.026.258.054.386.086.3.074.594.165.887.259.706.227,1.4.482,2.112.7a2.424,2.424,0,0,0,2.952-1.677,2.449,2.449,0,0,0-1.676-2.952,27.447,27.447,0,0,0-4.238-1.173,15.16,15.16,0,0,0-3.872-.028,16.65,16.65,0,0,0-7.641,2.587,2.453,2.453,0,0,0-.861,3.283,2.428,2.428,0,0,0,3.284.861Z"/><path class="c" d="M75.768,87.822c-.966-2.409-.943-8.138,3.7-9.011,6.194-.477,7.095,6.372,5.279,9.778C83.262,91.378,78.336,92.9,75.768,87.822Z"/><path class="c" d="M39.109,92.03c-.91-2.424-.946-8.164,3.3-8.993,5.675-.417,6.569,6.455,4.938,9.851C46.015,95.668,41.514,97.14,39.109,92.03Z"/><path class="c" d="M59,95.306c-.724,1.625-1.418,3.274-2,4.957a4.761,4.761,0,0,0-.32,1.807,3.417,3.417,0,0,0,.449,1.605,4.014,4.014,0,0,0,1.232,1.2,4.792,4.792,0,0,0,2.276.763c.322.034.64,0,.962.014a2.42,2.42,0,0,0,2.4-2.4,2.448,2.448,0,0,0-2.4-2.4c-.322-.009-.64.024-.962-.014l.638.085a2.515,2.515,0,0,1-.589-.164l.573.241a3.317,3.317,0,0,1-.576-.343l.485.375a1.536,1.536,0,0,1-.223-.2l.375.486a.736.736,0,0,1-.085-.14l.242.573a1.223,1.223,0,0,1-.072-.237l.086.638a1.867,1.867,0,0,1,0-.442l-.085.638a9.771,9.771,0,0,1,.627-1.934c.269-.7.555-1.4.847-2.091l-.242.573c.165-.391.332-.782.5-1.17a2.611,2.611,0,0,0,.242-1.849,2.445,2.445,0,0,0-1.1-1.434,2.418,2.418,0,0,0-1.849-.242A2.328,2.328,0,0,0,59,95.306Z"/><path class="c" d="M108.9,124.883a64.339,64.339,0,0,0,13.7-22.039,2.4,2.4,0,1,0-4.628-1.276,53.249,53.249,0,0,1-4.007,8.362,61.948,61.948,0,0,1-8.463,11.559c-2.1,2.259,1.284,5.661,3.394,3.394Z"/><path class="c" d="M107.3,7.079A57.682,57.682,0,0,0,76.877.1,71.111,71.111,0,0,0,48.986,7.717a57.278,57.278,0,0,0-19.929,16.89c-6,8.132-9.151,18.182-10.048,28.184a71.65,71.65,0,0,0,.577,15.773A90.891,90.891,0,0,0,23.559,86.08c.994,2.906,5.632,1.658,4.628-1.276-5.964-17.433-7.248-38.613,2.958-54.776,9.12-14.443,25.5-22.763,42.149-24.8a51.711,51.711,0,0,1,14.984.208,56.247,56.247,0,0,1,16.6,5.785c2.733,1.434,5.162-2.707,2.423-4.144Z"/><path class="c" d="M96.559,127.7a59.126,59.126,0,0,1-19.181,7.949,37.609,37.609,0,0,1-20.193-1.331,35.118,35.118,0,0,1-15.579-10.721c-3.894-4.829-6.309-10.778-7.993-16.692-2.441-8.578-3.941-17.429-6.129-26.076C26.726,77.833,22.1,79.1,22.855,82.1c2.061,8.142,3.575,16.424,5.711,24.545,1.722,6.547,4.255,13.089,8.287,18.578,8.716,11.865,24.061,17.539,38.473,15.6,8.508-1.146,16.368-4.529,23.656-8.98,2.632-1.608.223-5.761-2.423-4.145Z"/><path class="c" d="M123.739,74.864a5.474,5.474,0,0,1,3.748-1.188,6.374,6.374,0,0,1,2.12.4,4.367,4.367,0,0,1,.657.321,4.111,4.111,0,0,1,.463.3c.178.147.328.319.5.475.077.072.143.159.212.238-.3-.338-.082-.118-.019-.027a7.13,7.13,0,0,1,.71,1.249,12.655,12.655,0,0,1,.854,4.226c.287,5.606-1.911,12.258-6.571,15.723-2.287,1.7-5.787,2.7-8.541,1.8-2.943-.962-4.2,3.671-1.276,4.629,3.8,1.241,8.343.112,11.681-1.919,3.462-2.108,5.9-5.717,7.455-9.383a24.269,24.269,0,0,0,2.029-11.224c-.238-3.423-1.136-7.16-3.924-9.417a10.746,10.746,0,0,0-13.489.4,2.421,2.421,0,0,0,0,3.394,2.449,2.449,0,0,0,3.394,0Z"/><path class="c" d="M85.208,42.468c2.738,6.4,5.831,12.98,10.085,18.526,4.138,5.4,9.275,10.907,15.722,13.459a2.418,2.418,0,0,0,2.953-1.677,2.458,2.458,0,0,0-1.677-2.952,24.2,24.2,0,0,1-7.047-4.926,52.244,52.244,0,0,1-6.419-7.137c-3.952-5.337-6.871-11.637-9.472-17.715a2.414,2.414,0,0,0-3.284-.861,2.463,2.463,0,0,0-.861,3.283Z"/><path class="c" d="M85.074,39.772C78.668,48.626,69.518,55.342,59.8,60.158q-1.892.938-3.828,1.781a4.27,4.27,0,0,0-.592.256c-.476.33-.333-.165.065.162.014.011,0,.033.02.042q.145.706.065-.169-.011-.36-.012-.72a31.085,31.085,0,0,1,.244-4.482c.234-1.7.888-3.715-.947-4.811-1.641-.981-3.037-.128-4.191,1.076q-1.633,1.7-3.278,3.4-3.487,3.59-7.038,7.117c-4.96,4.916-10.049,9.668-15.356,14.2a2.421,2.421,0,0,0,0,3.394,2.449,2.449,0,0,0,3.394,0Q35.131,75.6,41.5,69.366q3.323-3.246,6.577-6.56,1.668-1.695,3.323-3.4.739-.764,1.477-1.529a10.778,10.778,0,0,1,1.513-1.614l-1.211.327h.226l-1.212-.327.2.1L51.53,55.5l.128.187-.328-1.211a17.51,17.51,0,0,1-.4,2.784c-.128,1.094-.2,2.194-.214,3.3-.033,1.992-.061,4,1.564,5.414,1.691,1.468,3.637,1.173,5.528.365q2.621-1.122,5.164-2.411A79.361,79.361,0,0,0,81.224,51.276,62.64,62.64,0,0,0,89.219,42.2a2.419,2.419,0,0,0-.861-3.284,2.454,2.454,0,0,0-3.284.861Z"/><path class="c" d="M107.773,121.02q1.088,3.289,2.175,6.58a26.971,26.971,0,0,0,2.411,5.851c1.4,2.236,3.762,3.478,6.138,4.435,4.587,1.85,9.545,2.514,14.4,3.282a2.474,2.474,0,0,0,2.952-1.676,2.418,2.418,0,0,0-1.676-2.952c-4.51-.714-9.081-1.345-13.4-2.9a13.434,13.434,0,0,1-2.761-1.287c-.255-.155-.508-.316-.748-.5.326.243-.066-.059-.165-.153-.168-.159-.326-.322-.482-.491-.114-.134-.086-.094.084.118-.07-.1-.136-.2-.2-.3-1.834-3.544-2.853-7.5-4.1-11.284-.964-2.919-5.6-1.669-4.628,1.276Z"/><path class="c" d="M67.909,138.839c.214,1.728-.774,2.876-2.372,3.959-1.678,1.138-3.535,2.1-5.318,3.061-4.039,2.185-8.195,4.153-12.2,6.409-2.69,1.517-.274,5.666,2.423,4.145,4.34-2.448,8.864-4.552,13.22-6.97,3.991-2.216,9.722-5.13,9.043-10.6a2.477,2.477,0,0,0-2.4-2.4,2.414,2.414,0,0,0-2.4,2.4Z"/><path class="c" d="M79.938,72.119a12.276,12.276,0,0,0,7.2,2.233,2.5,2.5,0,0,0,1.7-.7,2.4,2.4,0,0,0-1.7-4.1,9.573,9.573,0,0,1-1.385-.073l.638.086a10.527,10.527,0,0,1-2.631-.713l.573.242a9.838,9.838,0,0,1-1.977-1.12,2.416,2.416,0,0,0-1.85-.241,2.4,2.4,0,0,0-1.676,2.952l.242.573a2.4,2.4,0,0,0,.861.861Z"/><path class="c" d="M96.311,83.119a56.7,56.7,0,0,0,.525,6.664c.28,1.946.586,4.206,1.97,5.716a5.885,5.885,0,0,0,5.932,1.415,6.333,6.333,0,0,0,4.147-4.569,2.4,2.4,0,1,0-4.628-1.276c-.044.152-.093.3-.14.451-.158.505.254-.454,0,.008-.075.136-.157.272-.227.41-.191.375.242-.241.053-.046-.109.112-.223.223-.33.337-.172.181.412-.216.033-.04a3.114,3.114,0,0,1-.3.158l.265-.114a3.584,3.584,0,0,0-.469.136c-.5.139.511.01-.013,0l-.494,0c-.443,0,.339.1.072,0-.1-.036-.612-.089-.252-.05.319.034-.025-.037-.143-.092-.445-.208.319.291-.017-.018s.213.422.006-.011q-.063-.108-.117-.222c-.076-.16-.053-.1.07.178a2.591,2.591,0,0,1-.282-.905c-.087-.342-.157-.688-.224-1.034-.084-.427-.158-.855-.225-1.285-.009-.057-.108-.767-.036-.215q-.04-.318-.077-.638c-.186-1.648-.263-3.305-.3-4.962a2.4,2.4,0,0,0-4.8,0Z"/><path class="d" d="M7.8,264.6c-1.438,12.448-3.3,25.378-5.44,37.326,0,0,27.544,0,46.656,0,.519-4.34,1.285-10.439,1.617-13.119.61-.021.931-.036.931-.036,28.664-1.424,69.652-1.466,103.728.064l7.308-31.91c-.985-2.945-2.119-6.718-3.486-12.264-1.518-6.165-6.075-43-6.025-53.723l.932.751c11.167,9,24.344,17.139,25.7,32.059a13.7,13.7,0,0,1-1.086,7.57,1.99,1.99,0,0,0,2.141,2.742,16.844,16.844,0,0,1,1.829-.177,29,29,0,0,1,8.719,1.56,31.792,31.792,0,0,1,7.978,5.084,65.673,65.673,0,0,1,10.4,12.352,2,2,0,0,0,3.068.332c3.7-3.614,6.156-6.235,9-9.494,6.556-7.5,8.252-15.38,7.631-24.778-1.256-19.037-14.418-30.848-26.908-44.865a115.153,115.153,0,0,0-24.14-21.135,85.39,85.39,0,0,0-23.751-11.195,93.04,93.04,0,0,0-18.84-4.156l-1.524,1.639-2.209,2.375a77.887,77.887,0,0,1-43.844,20.985c-6.287.79-12.775.792-18.963-1.1a30.089,30.089,0,0,1-15.934-11.705c-12.832,6.92-20.41,10.75-27.8,20.264-5.933,7.642-8.085,13.06-9.747,21.634-3.683,24.257-4.552,39.9-6.962,63.818C8.486,258.488,8.157,261.528,7.8,264.6Z"/><path class="c" d="M51.567,291.173c26.826-1.325,53.742-1.348,80.589-.716q11.572.271,23.139.78c3.089.138,3.082-4.662,0-4.8q-41.635-1.86-83.362-.8c-6.791.166-13.581.4-20.366.734-3.074.151-3.092,4.952,0,4.8Z"/><path class="c" d="M150.717,189.774a80.619,80.619,0,0,0,.409,9.935c.382,4.924.879,9.839,1.418,14.747,1.013,9.24,2.077,18.509,3.641,27.675a105.007,105.007,0,0,0,4.1,15.434c.972,2.916,5.609,1.666,4.628-1.276a105.914,105.914,0,0,1-3.905-14.309c-.665-3.633-1.163-7.3-1.657-10.958.041.3-.042-.316-.054-.4l-.1-.794q-.124-.948-.247-1.9-.245-1.9-.478-3.8-.486-3.95-.931-7.906c-.557-4.96-1.071-9.926-1.484-14.9a89.917,89.917,0,0,1-.539-11.552c.145-3.088-4.655-3.08-4.8,0Z"/><path class="a" d="M199.3,240.529a31.824,31.824,0,0,0-7.978-5.085,30.75,30.75,0,0,0-7.344-1.516l-1.426.568c-2.74,4.315-9.635,15.53-15.055,20.031-2.242,2.2-8.373,3.6-10.782,6.6a13.237,13.237,0,0,0-2.3,4.206,14.069,14.069,0,0,0-.608,3.438,109.361,109.361,0,0,0,2.958,26.452,15.168,15.168,0,0,0,2.018,5.25,5.665,5.665,0,0,0,4.731,2.637c1.884-.105,3.668-1.848,3.389-3.714l1.186-.229c1.195,6.25,2.063,12.091,3.63,19.679.684,3.31,1.514,8.4,3.485,11.145a4.543,4.543,0,0,0,3.031,2.062c2.279.236,3.962-2.082,4.771-4.226,2.143-5.671,2.487-11.256,2.076-17.566-.78-11.975-2.278-29.195-2.217-30.943a15.614,15.614,0,0,1,1.618-6.67c9.376-8.631,16.415-15.817,23.4-22.393A65.223,65.223,0,0,0,199.3,240.529Z"/><path class="c" d="M162.954,287.267c2.2,8.409,3.586,16.957,5.151,25.5.753,4.107,1.461,8.273,2.516,12.316.952,3.649,2.716,8.543,6.981,9.283,4.758.826,7.216-4.052,8.379-7.814a42.257,42.257,0,0,0,1.63-13.728c-.232-7.749-1.059-15.508-1.653-23.236-.405-5.268-1.448-11.232-.036-16.439.81-2.985-3.819-4.259-4.628-1.276-1.181,4.356-.792,8.963-.464,13.395.511,6.891,1.073,13.777,1.562,20.669a84.467,84.467,0,0,1,.33,12.038,32.543,32.543,0,0,1-1,6.027,12.57,12.57,0,0,1-2,4.878c-2.27,2.706-3.957-3.19-4.368-4.7-1-3.665-1.637-7.46-2.337-11.189-1.695-9.032-3.1-18.092-5.429-26.993-.78-2.986-5.411-1.72-4.628,1.276Z"/><path class="c" d="M165.8,252.83a7.611,7.611,0,0,1-1.606,1.056c-.805.435-1.637.819-2.466,1.208a27.121,27.121,0,0,0-5.195,2.925c-3.921,3.032-5.162,7.962-5.129,12.688a113.84,113.84,0,0,0,1.369,16.582q.63,4.075,1.568,8.1a16.962,16.962,0,0,0,2.97,7.087,7.636,7.636,0,0,0,7.193,2.911,5.927,5.927,0,0,0,4.8-5.99,2.461,2.461,0,0,0-2.4-2.4,2.419,2.419,0,0,0-2.4,2.4c.1,1.233-1.2,1.548-2.175,1.107-1.555-.7-2.291-2.5-2.749-4.016a79.816,79.816,0,0,1-2.559-13.195,109.23,109.23,0,0,1-.819-13.551c.006-3.184,1.1-6.6,3.9-8.4,2.916-1.874,6.518-2.717,9.088-5.118,2.262-2.113-1.138-5.5-3.394-3.394Z"/><path class="c" d="M169.2,256.224c3.477-2.922,6.227-6.763,8.825-10.453,2.311-3.283,4.455-6.674,6.6-10.064,1.66-2.616-2.492-5.027-4.144-2.422-2.1,3.307-4.19,6.619-6.44,9.827a48.8,48.8,0,0,1-8.24,9.718,2.419,2.419,0,0,0,0,3.394,2.451,2.451,0,0,0,3.394,0Z"/><path class="c" d="M185.313,275.141c8.26-7.572,16.143-15.534,24.3-23.218,2.253-2.123-1.146-5.513-3.394-3.394-8.154,7.684-16.037,15.645-24.3,23.218-2.282,2.092,1.119,5.48,3.394,3.394Z"/><path class="c" d="M54.055,146.644c-8.655,4.69-17.8,9.044-25.015,15.887a51.6,51.6,0,0,0-15.029,25.763,187.156,187.156,0,0,0-2.754,18.515c-.7,5.628-1.31,11.266-1.866,16.909-1.149,11.654-2.1,23.327-3.334,34.972-1.512,14.261-3.483,28.478-6.008,42.6a2.468,2.468,0,0,0,1.676,2.952,2.42,2.42,0,0,0,2.952-1.676c4.337-24.247,6.67-48.7,8.971-73.2,1.057-11.249,2.28-22.479,3.911-33.66a52.562,52.562,0,0,1,3.9-14.783A50.631,50.631,0,0,1,30.01,168.4c7.259-7.938,17.155-12.56,26.468-17.607,2.717-1.472.3-5.618-2.423-4.144Z"/><path class="c" d="M31.312,204.585c-1.975,9.227-.811,18.709,1.9,27.664,2.559,8.442,6.511,16.271,10.246,24.228a58.626,58.626,0,0,1,4.5,11.932,47.8,47.8,0,0,1,.968,12.35c-.246,6.515-1.325,13.016-2.109,19.483-.913,7.523-2.29,14.987-3.455,22.51a2.476,2.476,0,0,0,1.676,2.953A2.419,2.419,0,0,0,48,324.028c.572-3.688,1.074-7.387,1.688-11.068.558-3.344,1.217-6.646,1.614-10.013.707-5.992,1.614-11.975,2.159-17.984.781-8.627.108-17.256-3.318-25.289-3.391-7.952-7.614-15.52-10.6-23.649-3.516-9.577-5.773-20.013-3.6-30.164.645-3.013-3.981-4.3-4.628-1.276Z"/><path class="c" d="M51.563,151.48A33.468,33.468,0,0,0,66.4,163.033c6.573,2.595,13.922,2.848,20.87,2.065a79.578,79.578,0,0,0,35.562-13.076,75.37,75.37,0,0,0,13.11-11.1c2.1-2.26-1.286-5.662-3.395-3.394a73.573,73.573,0,0,1-25.14,17.442,75.086,75.086,0,0,1-17.037,4.889c-6.376,1.05-13.077,1.32-19.368-.364a27.926,27.926,0,0,1-15.291-10.441,2.471,2.471,0,0,0-3.284-.861,2.418,2.418,0,0,0-.861,3.283Z"/><path class="c" d="M141.865,140.923a100.851,100.851,0,0,1,24.614,7.935,101.433,101.433,0,0,1,19.849,12.85c6.825,5.544,12.606,12.07,18.523,18.538,5.639,6.164,11.446,12.3,15.8,19.482a43.317,43.317,0,0,1,6.469,23.4,29.853,29.853,0,0,1-2.232,11.366c-1.731,4.01-4.5,7.256-7.415,10.445q-2.243,2.45-4.595,4.794-.645.645-1.3,1.283l-.168.165q-.6.5-.232.272c.065.047.206-.255.287-.029.236.659.116-.232.105-.042.01-.175-.283-.442-.391-.6q-.54-.8-1.1-1.582a60.867,60.867,0,0,0-9.522-10.76,27.315,27.315,0,0,0-10.049-5.779,35.486,35.486,0,0,0-5.9-1.083,14.328,14.328,0,0,0-2.485-.064,7.117,7.117,0,0,0-1.671.173c.179-.44.463.428.388.393.139.065-.227.509.121-.146a6.816,6.816,0,0,0,.3-.746c.132-.349.257-.7.363-1.058a15.324,15.324,0,0,0,.554-3.189,24.45,24.45,0,0,0-.5-6.371,29.214,29.214,0,0,0-4.479-10.691c-4.416-6.591-10.748-11.5-16.941-16.312-1.52-1.182-3.04-2.365-4.541-3.572a2.473,2.473,0,0,0-3.394,0,2.418,2.418,0,0,0,0,3.394c6.338,5.1,13.205,9.76,18.515,15.992,4.553,5.343,8.5,13.705,5.722,20.729-.948,2.393-.218,5.11,2.37,6.077a7.069,7.069,0,0,0,3.19.127,14.722,14.722,0,0,1,2.815.1,26.6,26.6,0,0,1,5.274,1.174,22.57,22.57,0,0,1,5.043,2.812,43.942,43.942,0,0,1,9.533,9.669c.739.964,1.445,1.954,2.129,2.959a7.235,7.235,0,0,0,2.428,2.651,4.377,4.377,0,0,0,3.519.229,9.648,9.648,0,0,0,3.249-2.622c6.4-6.383,12.84-13.121,14.892-22.215a44.7,44.7,0,0,0-2.511-26.44c-3.385-8.15-8.864-15.089-14.68-21.64-2.99-3.369-6.075-6.653-9.081-10.007-3.237-3.612-6.553-7.145-10.122-10.434a117.316,117.316,0,0,0-19.4-14.451,100.766,100.766,0,0,0-25.232-10.233q-3.387-.921-6.835-1.57a2.465,2.465,0,0,0-2.953,1.676,2.422,2.422,0,0,0,1.677,2.952Z"/><path class="e" d="M214.953,296.428c8.414,1.6,16.886,2.865,25.3,4.479l-1.434-3.525c-1.6,3.782-3.53,7.411-5.2,11.159-.555,1.243-.252,3.268,1.434,3.526,8.779,1.34,17.57,2.6,26.35,3.929a2.478,2.478,0,0,0,2.952-1.677,2.418,2.418,0,0,0-1.676-2.952c-8.78-1.331-17.571-2.588-26.35-3.929l1.434,3.526c1.673-3.748,3.606-7.378,5.2-11.16.547-1.3.255-3.2-1.435-3.525-8.41-1.614-16.882-2.885-25.3-4.48a2.464,2.464,0,0,0-2.952,1.677,2.422,2.422,0,0,0,1.676,2.952Z"/><path class="e" d="M209.08,281.3c10.479-3.271,20.495-7.9,30.98-11.144l-3.038-2.315c.366,4.089.364,8.2.647,12.3a2.426,2.426,0,0,0,3.038,2.314c9.031-3.159,18.19-5.939,27.218-9.107a2.461,2.461,0,0,0,1.676-2.953,2.423,2.423,0,0,0-2.952-1.676c-9.028,3.168-18.187,5.949-27.218,9.108l3.038,2.314c-.283-4.094-.281-8.207-.647-12.3a2.432,2.432,0,0,0-3.038-2.314c-10.485,3.247-20.5,7.874-30.98,11.144-2.939.918-1.685,5.553,1.276,4.629Z"/></svg>