<!-- icon666.com - MILLIONS vector ICONS FREE --><svg version="1.1" id="Capa_1" xmlns="http://www.w3.org/2000/svg" xmlns:xlink="http://www.w3.org/1999/xlink" x="0px" y="0px" viewBox="0 0 512 512" style="enable-background:new 0 0 512 512;" xml:space="preserve"><path style="fill:#FFB64C;" d="M112.531,511.981l78.152-131.962h-75.195l61.333-120h176.704l-42.7,71h99.552L112.531,511.981z"></path><polygon style="fill:#FFA81F;" points="256,260.019 256,424.814 410.376,331.019 310.825,331.019 353.525,260.019 "></polygon><path style="fill:#FF4F19;" d="M512,290.019H0v-290h512V290.019z"></path><rect x="256" y="0.019" style="fill:#EE2500;" width="256" height="290"></rect><g><rect x="238.08" y="166.58" style="fill:#FFF5CB;" width="30.4" height="29.44"></rect><path style="fill:#FFF5CB;" d="M208.322,82.419h-24.16l-7.2,29.28h-9.6l7.36-29.28h-24.16l-7.2,29.28h-23.52v20.8h18.4l-3.2,13.92 h-23.36v22.4h17.92l-6.72,27.2h24.16l6.56-27.2h9.6l-6.72,27.2h24.16l6.56-27.2h25.92v-22.4h-20.48l3.2-13.92h25.44v-20.8h-20.32 L208.322,82.419z M168.642,146.419h-9.6l3.2-13.92h9.6L168.642,146.419z"></path><rect x="238.08" y="81.3" style="fill:#FFF5CB;" width="30.4" height="66.72"></rect></g><g><path style="fill:#FFDBA9;" d="M382.239,151.619c1.813-6.56,2.772-13.945,2.88-22.16h-24.48c0,4.055-0.32,7.815-0.96,11.28 c-0.64,3.467-1.548,6.695-2.72,9.68l-13.12-13.92c4.48-3.84,8.053-8.052,10.72-12.64c2.665-4.585,4-9.76,4-15.52 c0-4.905-0.96-9.092-2.88-12.56c-1.92-3.465-4.455-6.292-7.6-8.48c-3.147-2.185-6.72-3.785-10.72-4.8 c-4-1.013-8.08-1.52-12.24-1.52c-4.8,0-9.228,0.667-13.28,2c-4.055,1.335-7.547,3.228-10.48,5.68c-2.935,2.455-5.255,5.52-6.96,9.2 c-1.708,3.68-2.56,7.815-2.56,12.4c0,3.947,0.693,7.547,2.08,10.8c1.385,3.255,3.785,6.96,7.2,11.12 c-4.375,3.52-8.135,7.655-11.28,12.4c-3.147,4.748-4.72,10.375-4.72,16.88c0,4.375,0.853,8.72,2.56,13.04 c1.705,4.32,4.24,8.188,7.6,11.6c3.36,3.415,7.52,6.188,12.48,8.32c4.96,2.133,10.745,3.2,17.36,3.2c5.012,0,10-0.64,14.96-1.92 s9.732-3.305,14.32-6.08l6.08,6.4h39.84l-25.44-26.72C377.971,164.074,380.423,158.179,382.239,151.619z M320.878,104.739 c1.013-1.12,2.425-1.68,4.24-1.68c1.705,0,3.065,0.48,4.08,1.44c1.012,0.96,1.52,2.348,1.52,4.16c0,1.708-0.48,3.12-1.44,4.24 c-0.96,1.12-2.507,2.428-4.64,3.92c-1.92-1.813-3.28-3.225-4.08-4.24c-0.8-1.013-1.2-2.212-1.2-3.6 C319.358,107.274,319.864,105.859,320.878,104.739z M328.318,173.939c-2.56,0-4.747-0.425-6.56-1.28 c-1.815-0.853-3.28-1.92-4.4-3.2s-1.92-2.64-2.4-4.08s-0.72-2.745-0.72-3.92c0-2.985,1.813-5.973,5.44-8.96l18.08,19.36 C334.663,173.247,331.518,173.939,328.318,173.939z"></path><rect x="256" y="166.58" style="fill:#FFDBA9;" width="12.48" height="29.44"></rect><rect x="256" y="81.3" style="fill:#FFDBA9;" width="12.48" height="66.72"></rect></g></svg>