<?xml version="1.0" encoding="iso-8859-1"?>
<!-- Uploaded to: SVG Repo, www.svgrepo.com, Generator: SVG Repo Mixer Tools -->
<svg height="800px" width="800px" version="1.1" id="Layer_1" xmlns="http://www.w3.org/2000/svg" xmlns:xlink="http://www.w3.org/1999/xlink" 
	 viewBox="0 0 512 512" xml:space="preserve">
<path style="fill:#616F6D;" d="M510.073,287.465C511.338,277.152,512,266.654,512,256C512,114.616,397.384,0,256,0S0,114.616,0,256
	c0,117.795,79.565,216.991,187.88,246.82L510.073,287.465z"/>
<path style="fill:#394B48;" d="M510.073,287.465l-69.308-69.308L256,114.592L71.235,218.157l61.774,61.774l-32.835,135.184
	l87.706,87.706C209.572,508.793,232.41,512,256,512C386.731,512,494.563,414.004,510.073,287.465z"/>
<polygon style="fill:#FDE59A;" points="440.765,218.157 256,33.391 215.406,224.253 256,415.114 411.826,415.114 411.826,218.157 
	"/>
<g>
	<polygon style="fill:#FEF2CC;" points="71.235,218.157 100.174,218.157 100.174,415.114 256,415.114 256,33.391 	"/>
	<polygon style="fill:#FEF2CC;" points="389.565,198.433 389.565,392.849 256,392.849 222.609,222.979 256,64.868 	"/>
</g>
<polygon style="fill:#FFFFFF;" points="256,64.868 256,392.849 122.435,392.849 122.435,198.433 "/>
<path style="fill:#B0B7B6;" d="M256,144.696L211.478,256L256,367.304c61.472,0,111.304-49.832,111.304-111.304
	S317.472,144.696,256,144.696z"/>
<path style="fill:#C3C9C8;" d="M144.696,256c0,61.472,49.832,111.304,111.304,111.304V144.696
	C194.528,144.696,144.696,194.528,144.696,256z"/>
<path style="fill:#889391;" d="M278.261,233.739v-31.683c0-17.851-14.466-32.317-32.317-32.317h-12.205v64h-31.683
	c-17.851,0-32.317,14.466-32.317,32.317v12.205h64v31.683c0,17.851,14.466,32.317,32.317,32.317h12.205v-64h31.683
	c17.851,0,32.317-14.466,32.317-32.317v-12.205H278.261z"/>
<path style="fill:#394B48;" d="M256,217.043L240.417,256L256,294.957c21.515,0,38.957-17.441,38.957-38.957
	S277.515,217.043,256,217.043z"/>
<path style="fill:#616F6D;" d="M217.043,256c0,21.515,17.441,38.957,38.957,38.957v-77.913
	C234.485,217.043,217.043,234.485,217.043,256z"/>
<path style="fill:#C5C4C5;" d="M256,239.304L249.322,256L256,272.696c9.22,0,16.696-7.475,16.696-16.696S265.22,239.304,256,239.304
	z"/>
<path style="fill:#FFFFFF;" d="M239.304,256c0,9.22,7.475,16.696,16.696,16.696v-33.391C246.78,239.304,239.304,246.78,239.304,256z
	"/>
</svg>